<svg version="1.1" viewBox="0 0 16 16" xmlns="http://www.w3.org/2000/svg">
 <g transform="matrix(.038696 0 0 .03916 -.22483 -.14058)">
  <g transform="translate(-453.25,-12.956)">
   <path d="m584.1 377.1c-39.184-4.4054-78.775-24.77-103.58-53.278-6.2218-7.1506-14.128-18.438-18.853-26.917l-2.6069-4.6775 3.1201 1.6044c4.7052 2.4194 8.6992 5.5594 17.694 13.911 4.4956 4.174 10.436 8.812 13.2 10.307 4.3436 2.3485 5.7866 2.7186 10.626 2.7254 5.0302 7e-3 13.2-2.0646 13.2-3.3472 0-0.2325-1.7601-3.3527-3.9113-6.9338-39.684-66.061-39.063-152.87 1.5383-215.24 25.785-39.611 62.995-65.41 111.05-76.992 4.5515-1.097 8.4108-1.8593 8.5762-1.6938 0.16543 0.16543-4.0985 2.2277-9.4754 4.5829-27.338 11.975-48.164 26.053-68.665 46.42-30.64 30.438-46.554 63.542-49.524 103.02-1.8636 24.768 2.2642 46.131 13.253 68.591 16.261 33.235 46.425 56.443 81.16 62.445 10.48 1.8109 29.077 1.2678 37.827-1.1047 22.443-6.0854 41.276-21.495 64.556-52.822 3.6453-4.9051 6.9274-8.9184 7.2935-8.9184 1.278 0 9.9782 9.5891 12.55 13.832 4.499 7.4233 6.022 12.816 6.3987 22.655 0.27935 7.2968 0.03 10.088-1.3936 15.6-5.836 22.596-24.846 47.265-50.701 65.793-22.398 16.051-59.697 24.219-93.331 20.438z" fill="#ed1c24" stroke-width=".8"/>
   <path d="m700.1 423.81c32.857-14.898 54.033-28.431 73.292-46.838 45.749-43.726 63.284-104.56 45.514-157.9-3.3915-10.181-9.5616-22.559-15.896-31.889-5.9571-8.775-20.287-23.285-28.649-29.009-12.436-8.5131-28.928-15.321-43.461-17.94-8.5379-1.5389-26.794-1.3427-33.818 0.36344-25.051 6.0849-42.279 19.417-66.402 51.386-4.6482 6.16-8.5466 11.326-8.6632 11.481-0.57252 0.75854-6.3496-4.6367-9.6121-8.9768-13.644-18.151-14.2-37.343-1.7744-61.304 9.1517-17.648 26.734-36.69 45.675-49.468 7.7227-5.2099 13.861-8.2362 23.54-11.605 34.819-12.12 73.958-11.13 109.6 2.7727 34.819 13.583 63.197 38.02 81.043 69.789 2.6004 4.6291 2.6096 4.6816 0.72443 4.1308-3.4393-1.0049-10.163-6.0764-19.279-14.542-10.38-9.6392-15.349-12.469-22.718-12.939-4.7076-0.29975-12.503 1.4266-13.464 2.9817-0.20345 0.3292 1.4535 3.6317 3.682 7.3388 32.908 54.741 38.413 126.1 14.224 184.37-20.329 48.969-57.476 84.62-105.55 101.3-9.645 3.3468-26.295 7.8743-28.736 7.8138-1.9322-0.0479-1.8852-0.13206 0.73636-1.3207z" stroke-width=".8"/>
   <g fill="#bcbec0">
    <ellipse cx="666.17" cy="220.46" rx="25.178" ry="26.136" stroke-width=".6199"/>
    <circle cx="709.7" cy="187.58" r="18.981" stroke-width=".6"/>
    <circle cx="622" cy="253.19" r="18.981" stroke-width=".6"/>
    <circle cx="574.87" cy="240.34" r="13.598" stroke-width=".58685"/>
    <circle cx="756.87" cy="200.95" r="13.598" stroke-width=".58685"/>
    <circle cx="785.02" cy="228.51" r="9.049" stroke-width=".39053"/>
    <circle cx="547.01" cy="212.3" r="9.049" stroke-width=".39053"/>
   </g>
  </g>
 </g>
</svg>
